<?xml version="1.0" encoding="UTF-8" standalone="no"?>
<!DOCTYPE svg PUBLIC "-//W3C//DTD SVG 1.1//EN"
 "http://www.w3.org/Graphics/SVG/1.1/DTD/svg11.dtd">
<!-- Generated by graphviz version 2.43.0 (0)
 -->
<!-- Title: BettingRounds Pages: 1 -->
<svg width="1004pt" height="44pt"
 viewBox="0.00 0.00 1004.00 44.00" xmlns="http://www.w3.org/2000/svg" xmlns:xlink="http://www.w3.org/1999/xlink">
<g id="graph0" class="graph" transform="scale(1 1) rotate(0) translate(4 40)">
<title>BettingRounds</title>
<polygon fill="white" stroke="transparent" points="-4,4 -4,-40 1000,-40 1000,4 -4,4"/>
<!-- Start -->
<g id="node1" class="node">
<title>Start</title>
<polygon fill="none" stroke="black" points="54,-36 0,-36 0,0 54,0 54,-36"/>
<text text-anchor="middle" x="27" y="-14.3" font-family="Times,serif" font-size="14.00">Start</text>
</g>
<!-- PreFlop -->
<g id="node2" class="node">
<title>PreFlop</title>
<polygon fill="none" stroke="black" points="164,-36 91,-36 91,0 164,0 164,-36"/>
<text text-anchor="middle" x="127.5" y="-14.3" font-family="Times,serif" font-size="14.00">PreFlop</text>
</g>
<!-- Start&#45;&gt;PreFlop -->
<g id="edge1" class="edge">
<title>Start&#45;&gt;PreFlop</title>
<path fill="none" stroke="black" d="M54.14,-18C62.34,-18 71.64,-18 80.78,-18"/>
<polygon fill="black" stroke="black" points="80.97,-21.5 90.97,-18 80.97,-14.5 80.97,-21.5"/>
</g>
<!-- Flop -->
<g id="node3" class="node">
<title>Flop</title>
<polygon fill="none" stroke="black" points="339,-36 285,-36 285,0 339,0 339,-36"/>
<text text-anchor="middle" x="312" y="-14.3" font-family="Times,serif" font-size="14.00">Flop</text>
</g>
<!-- PreFlop&#45;&gt;Flop -->
<g id="edge2" class="edge">
<title>PreFlop&#45;&gt;Flop</title>
<path fill="none" stroke="black" d="M164.12,-18C195.99,-18 242.51,-18 274.62,-18"/>
<polygon fill="black" stroke="black" points="274.91,-21.5 284.91,-18 274.91,-14.5 274.91,-21.5"/>
<text text-anchor="middle" x="224.5" y="-21.8" font-family="Times,serif" font-size="14.00">bets settled</text>
</g>
<!-- Turn -->
<g id="node4" class="node">
<title>Turn</title>
<polygon fill="none" stroke="black" points="514,-36 460,-36 460,0 514,0 514,-36"/>
<text text-anchor="middle" x="487" y="-14.3" font-family="Times,serif" font-size="14.00">Turn</text>
</g>
<!-- Flop&#45;&gt;Turn -->
<g id="edge3" class="edge">
<title>Flop&#45;&gt;Turn</title>
<path fill="none" stroke="black" d="M339.27,-18C368.7,-18 416.59,-18 449.61,-18"/>
<polygon fill="black" stroke="black" points="449.76,-21.5 459.76,-18 449.76,-14.5 449.76,-21.5"/>
<text text-anchor="middle" x="399.5" y="-21.8" font-family="Times,serif" font-size="14.00">bets settled</text>
</g>
<!-- River -->
<g id="node5" class="node">
<title>River</title>
<polygon fill="none" stroke="black" points="690,-36 635,-36 635,0 690,0 690,-36"/>
<text text-anchor="middle" x="662.5" y="-14.3" font-family="Times,serif" font-size="14.00">River</text>
</g>
<!-- Turn&#45;&gt;River -->
<g id="edge4" class="edge">
<title>Turn&#45;&gt;River</title>
<path fill="none" stroke="black" d="M514.35,-18C543.78,-18 591.61,-18 624.71,-18"/>
<polygon fill="black" stroke="black" points="624.9,-21.5 634.9,-18 624.9,-14.5 624.9,-21.5"/>
<text text-anchor="middle" x="574.5" y="-21.8" font-family="Times,serif" font-size="14.00">bets settled</text>
</g>
<!-- Showdown -->
<g id="node6" class="node">
<title>Showdown</title>
<polygon fill="none" stroke="black" points="905,-36 811,-36 811,0 905,0 905,-36"/>
<text text-anchor="middle" x="858" y="-14.3" font-family="Times,serif" font-size="14.00">Showdown</text>
</g>
<!-- River&#45;&gt;Showdown -->
<g id="edge5" class="edge">
<title>River&#45;&gt;Showdown</title>
<path fill="none" stroke="black" d="M690.41,-18C718.76,-18 764.25,-18 800.54,-18"/>
<polygon fill="black" stroke="black" points="800.99,-21.5 810.99,-18 800.99,-14.5 800.99,-21.5"/>
<text text-anchor="middle" x="750.5" y="-21.8" font-family="Times,serif" font-size="14.00">bets settled</text>
</g>
<!-- End -->
<g id="node7" class="node">
<title>End</title>
<polygon fill="none" stroke="black" points="996,-36 942,-36 942,0 996,0 996,-36"/>
<text text-anchor="middle" x="969" y="-14.3" font-family="Times,serif" font-size="14.00">End</text>
</g>
<!-- Showdown&#45;&gt;End -->
<g id="edge6" class="edge">
<title>Showdown&#45;&gt;End</title>
<path fill="none" stroke="black" d="M905.23,-18C914.14,-18 923.35,-18 931.88,-18"/>
<polygon fill="black" stroke="black" points="931.88,-21.5 941.88,-18 931.88,-14.5 931.88,-21.5"/>
</g>
</g>
</svg>
